<?xml version="1.0" standalone="no"?>
<!DOCTYPE svg PUBLIC "-//W3C//DTD SVG 20010904//EN" "http://www.w3.org/TR/2001/REC-SVG-20010904/DTD/svg10.dtd">
<svg version="1.0" xmlns="http://www.w3.org/2000/svg" width="16.000000pt" height="16.000000pt"
  viewBox="0 0 16.000000 16.000000" preserveAspectRatio="xMidYMid meet">
  <metadata>
    Created by potrace 1.11, written by Peter Selinger 2001-2013
  </metadata>
  <g transform="translate(0.000000,16.000000) scale(0.004558,-0.004558)" fill="#000000" stroke="none">
    <path d="M1569 3456 c-2 -2 -29 -7 -59 -10 -119 -14 -306 -63 -415 -109 -137
-58 -300 -154 -415 -245 -121 -95 -316 -319 -380 -435 -64 -117 -94 -175 -121
-244 -34 -85 -77 -230 -85 -283 -3 -19 -7 -40 -9 -47 -13 -39 -20 -151 -19
-313 0 -151 4 -205 23 -295 122 -599 525 -1063 1096 -1265 82 -28 141 -45 205
-56 14 -3 32 -7 40 -9 46 -13 153 -20 290 -20 223 0 317 13 505 68 245 72 506
232 695 425 314 320 478 724 478 1172 -1 458 -169 866 -492 1186 -254 252
-548 400 -936 470 -41 7 -394 16 -401 10z" />
  </g>
</svg>